<svg xmlns="http://www.w3.org/2000/svg" width="800" height="600" viewBox="0 0 800 600">
  <g transform="translate(400,320)" stroke="#0a0a0a" stroke-width="6" stroke-linejoin="round" stroke-linecap="round">
    <ellipse cx="20" cy="100" rx="220" ry="14" fill="#0a0a0a" opacity="0.15" stroke="none"/>
    <!-- ENCAP midsole -->
    <path d="M-200,85 Q-200,115 -175,118 L185,118 Q215,118 220,85 L220,55 L-200,55 Z" fill="#fef6e4"/>
    <!-- Midsole detail line -->
    <line x1="-200" y1="85" x2="220" y2="85"/>
    <!-- Upper -->
    <path d="M-185,55 Q-180,15 -140,-20 Q-80,-55 0,-60 Q90,-62 160,-42 Q200,-25 215,5 Q220,30 215,55 Z" fill="#00d9ff"/>
    <!-- Suede toe overlay -->
    <path d="M-185,55 Q-180,15 -140,-20 Q-100,-45 -50,-55 Q-70,-30 -85,0 Q-100,30 -110,55 Z" fill="#0a0a0a" opacity="0.15"/>
    <!-- Mesh panel -->
    <path d="M-30,-40 Q40,-50 100,-40 Q120,-15 100,15 Q40,25 -20,15 Q-40,-15 -30,-40 Z" fill="#fef6e4" opacity="0.4"/>
    <!-- N logo -->
    <path d="M40,-30 L40,30 L70,30 L100,-15 L100,30 L130,30 L130,-30 L100,-30 L70,15 L70,-30 Z" fill="#ffffff" stroke="#0a0a0a" stroke-width="4"/>
    <!-- Heel pull -->
    <path d="M170,-25 Q200,-30 210,-15 Q200,5 180,0 Z" fill="#ff5c8d"/>
    <!-- Lace area -->
    <ellipse cx="-50" cy="-15" rx="35" ry="20" fill="#fef6e4" opacity="0.6"/>
    <line x1="-70" y1="-30" x2="-30" y2="-30"/>
    <line x1="-70" y1="-15" x2="-30" y2="-15"/>
    <line x1="-70" y1="0" x2="-30" y2="0"/>
  </g>
</svg>
