<svg xmlns="http://www.w3.org/2000/svg" width="800" height="600" viewBox="0 0 800 600">
  <g transform="translate(400,320)" stroke="#0a0a0a" stroke-width="6" stroke-linejoin="round" stroke-linecap="round">
    <ellipse cx="20" cy="100" rx="220" ry="14" fill="#0a0a0a" opacity="0.15" stroke="none"/>
    <!-- Boost sole -->
    <path d="M-200,90 Q-200,115 -175,118 L185,118 Q215,118 220,90 L220,60 Q220,55 210,55 L-195,55 Q-200,55 -200,60 Z" fill="#ffffff"/>
    <!-- Boost dots texture -->
    <g fill="#0a0a0a" stroke="none">
      <circle cx="-160" cy="85" r="3"/>
      <circle cx="-140" cy="95" r="3"/>
      <circle cx="-115" cy="80" r="3"/>
      <circle cx="-90" cy="92" r="3"/>
      <circle cx="-65" cy="85" r="3"/>
      <circle cx="-40" cy="95" r="3"/>
      <circle cx="-15" cy="82" r="3"/>
      <circle cx="10" cy="92" r="3"/>
      <circle cx="35" cy="85" r="3"/>
      <circle cx="60" cy="95" r="3"/>
      <circle cx="85" cy="82" r="3"/>
      <circle cx="110" cy="92" r="3"/>
      <circle cx="135" cy="85" r="3"/>
      <circle cx="160" cy="95" r="3"/>
      <circle cx="185" cy="82" r="3"/>
    </g>
    <!-- Primeknit upper -->
    <path d="M-185,55 Q-180,20 -140,-15 Q-80,-55 0,-58 Q90,-60 160,-40 Q200,-25 215,5 Q220,30 215,55 Z" fill="#a3ff00"/>
    <!-- Knit stripe pattern -->
    <path d="M-150,30 Q-50,-30 100,-25 Q170,-15 200,15" fill="none" stroke="#0a0a0a" stroke-width="3" opacity="0.4"/>
    <path d="M-160,45 Q-60,-15 90,-10 Q170,0 205,30" fill="none" stroke="#0a0a0a" stroke-width="3" opacity="0.4"/>
    <!-- Side stripe (SPLY-350 area) -->
    <rect x="-30" y="-20" width="80" height="20" fill="#ffffff" rx="2"/>
    <text x="10" y="-5" font-family="monospace" font-size="14" font-weight="bold" fill="#0a0a0a" text-anchor="middle" stroke="none">SPLY-350</text>
    <!-- Heel pull -->
    <path d="M180,-30 L200,-50 L210,-30 Z" fill="#ff5c8d"/>
    <!-- Lace area -->
    <line x1="-50" y1="-40" x2="-30" y2="-40"/>
    <line x1="-50" y1="-25" x2="-30" y2="-25"/>
    <line x1="-50" y1="-10" x2="-30" y2="-10"/>
  </g>
</svg>
