<?xml version="1.0" encoding="UTF-8"?>
<svg version="1.1" xmlns="http://www.w3.org/2000/svg" width="396" height="327">
<path d="M0 0 C0.86675354 -0.00175232 1.73350708 -0.00350464 2.62652588 -0.00531006 C5.50030501 -0.00972244 8.37402294 -0.00679298 11.24780273 -0.00341797 C13.23795076 -0.00409112 15.22809871 -0.00506124 17.21824646 -0.00631714 C21.39208762 -0.00779323 25.56590741 -0.00564216 29.73974609 -0.00097656 C35.10248545 0.00472436 40.4651748 0.00143885 45.82791233 -0.00454903 C49.93784465 -0.00815387 54.04776501 -0.00701647 58.15769768 -0.00442123 C60.13575178 -0.00375194 62.11380696 -0.00458045 64.09185982 -0.00690079 C66.85033185 -0.00942646 69.60872163 -0.0055881 72.3671875 0 C73.60540504 -0.00303635 73.60540504 -0.00303635 74.86863708 -0.00613403 C80.50463325 0.0151313 80.50463325 0.0151313 81.61889648 1.12939453 C81.77732298 3.20024173 81.87014071 5.27617482 81.93530273 7.35205078 C81.97719727 8.61210938 82.0190918 9.87216797 82.06225586 11.17041016 C82.10207245 12.51090189 82.14178462 13.85139673 82.18139648 15.19189453 C82.22457691 16.53630976 82.26819104 17.88071113 82.31225586 19.22509766 C82.41875006 22.52641794 82.52076109 25.82781689 82.61889648 29.12939453 C83.83005127 29.11368408 83.83005127 29.11368408 85.06567383 29.09765625 C88.70838331 29.05619622 92.35104324 29.03010015 95.99389648 29.00439453 C97.90041992 28.97925781 97.90041992 28.97925781 99.84545898 28.95361328 C101.66303711 28.94394531 101.66303711 28.94394531 103.51733398 28.93408203 C104.6380127 28.9236084 105.75869141 28.91313477 106.91333008 28.90234375 C109.61889648 29.12939453 109.61889648 29.12939453 111.61889648 31.12939453 C111.81232002 33.9556368 111.88110859 36.68351875 111.86181641 39.51049805 C111.86371475 40.37725159 111.8656131 41.24400513 111.86756897 42.13702393 C111.87128308 45.01087398 111.86056433 47.88447307 111.84936523 50.75830078 C111.84817378 52.74844839 111.8477202 54.73859656 111.84797668 56.72874451 C111.84641077 60.90261345 111.83811225 65.07639674 111.82470703 69.25024414 C111.80770603 74.61298966 111.80389293 79.97564106 111.80465221 85.33841038 C111.80438092 89.44834805 111.79890646 93.55826494 111.79165077 97.66819572 C111.78845829 99.64624817 111.78649535 101.62430298 111.78575706 103.60235786 C111.78360024 106.36084163 111.77487067 109.1192235 111.76416016 111.87768555 C111.76461334 112.70316391 111.76506653 113.52864227 111.76553345 114.37913513 C111.73337084 120.01492018 111.73337084 120.01492018 110.61889648 121.12939453 C108.47330822 121.21715058 106.32485227 121.23634672 104.17749023 121.22705078 C102.87231445 121.22382813 101.56713867 121.22060547 100.22241211 121.21728516 C98.83373959 121.20892854 97.44506771 121.20046358 96.05639648 121.19189453 C94.66381993 121.18688119 93.27124167 121.182318 91.87866211 121.17822266 C88.45869778 121.16638887 85.03881804 121.14990333 81.61889648 121.12939453 C81.6241333 121.97236084 81.62937012 122.81532715 81.63476562 123.68383789 C81.65177474 126.80167389 81.66433054 129.9194863 81.67382812 133.03735352 C81.67886705 134.38859839 81.68569826 135.73983779 81.69433594 137.09106445 C81.70642068 139.02959887 81.71159477 140.96817253 81.71655273 142.90673828 C81.72178955 144.07454834 81.72702637 145.2423584 81.73242188 146.44555664 C81.61889648 149.12939453 81.61889648 149.12939453 80.61889648 150.12939453 C77.82437378 150.22991328 75.05453294 150.26555347 72.25952148 150.25878906 C70.94497986 150.26141754 70.94497986 150.26141754 69.60388184 150.26409912 C66.69220021 150.26851885 63.78057878 150.26557922 60.86889648 150.26220703 C58.85489897 150.26288004 56.84090153 150.26385003 54.8269043 150.2651062 C50.60000843 150.26658334 46.37313365 150.26442811 42.14624023 150.25976562 C36.71509116 150.25406833 31.2839915 150.25734725 25.85284424 150.26333809 C21.69229761 150.26694327 17.53176279 150.26580531 13.37121582 150.2632103 C11.36804193 150.26254091 9.36486699 150.26336986 7.36169434 150.26568985 C4.56719096 150.26821568 1.77276878 150.26437677 -1.02172852 150.25878906 C-2.27632874 150.26182541 -2.27632874 150.26182541 -3.55627441 150.2649231 C-9.26684109 150.24365695 -9.26684109 150.24365695 -10.38110352 149.12939453 C-10.46877464 147.05677377 -10.48806225 144.98119159 -10.47875977 142.90673828 C-10.47553711 141.64667969 -10.47231445 140.38662109 -10.46899414 139.08837891 C-10.46063755 137.74788344 -10.45217259 136.40738865 -10.44360352 135.06689453 C-10.43859012 133.72249511 -10.43402693 132.37809393 -10.42993164 131.03369141 C-10.41809839 127.73221513 -10.40161322 124.4308265 -10.38110352 121.12939453 C-11.63769775 121.15296021 -11.63769775 121.15296021 -12.91967773 121.17700195 C-16.02447229 121.2280946 -19.12905283 121.26572687 -22.23413086 121.29418945 C-24.24029726 121.31671704 -26.24626878 121.35483023 -28.25219727 121.39306641 C-29.5090332 121.40273437 -30.76586914 121.41240234 -32.06079102 121.42236328 C-33.22336426 121.43807373 -34.3859375 121.45378418 -35.58374023 121.4699707 C-36.50687012 121.35758057 -37.43 121.24519043 -38.38110352 121.12939453 C-40.90473835 117.34394228 -40.66953705 114.32715415 -40.65576172 109.94189453 C-40.66087265 109.10746826 -40.66598358 108.27304199 -40.67124939 107.41333008 C-40.6851628 104.65194551 -40.6841875 101.89081 -40.68188477 99.12939453 C-40.68577037 97.21272692 -40.69010475 95.29606016 -40.69487 93.37939453 C-40.7023357 89.36113697 -40.70203812 85.34296727 -40.69677734 81.32470703 C-40.6909783 76.16945699 -40.70792252 71.0145657 -40.73112202 65.859375 C-40.74583556 61.90118296 -40.74673438 57.94307782 -40.74361229 53.98486328 C-40.74412657 52.08381438 -40.74938426 50.18276074 -40.75942421 48.28173828 C-40.77172707 45.62655127 -40.76503452 42.9720698 -40.75341797 40.31689453 C-40.76106171 39.52822998 -40.76870544 38.73956543 -40.77658081 37.92700195 C-40.72527592 32.63578504 -40.72527592 32.63578504 -39.02828979 30.13896179 C-36.49372655 28.58551753 -34.34554168 28.79332958 -31.40063477 28.83642578 C-30.35238525 28.84391846 -29.30413574 28.85141113 -28.22412109 28.85913086 C-26.22901489 28.90009888 -26.22901489 28.90009888 -24.19360352 28.94189453 C-19.96547852 29.00376953 -15.73735352 29.06564453 -11.38110352 29.12939453 C-11.05110352 19.88939453 -10.72110352 10.64939453 -10.38110352 1.12939453 C-7.13411081 -0.49410182 -3.56729659 -0.0087692 0 0 Z M21.61889648 32.12939453 C21.61889648 60.50939453 21.61889648 88.88939453 21.61889648 118.12939453 C30.85889648 118.12939453 40.09889648 118.12939453 49.61889648 118.12939453 C49.61889648 89.74939453 49.61889648 61.36939453 49.61889648 32.12939453 C40.37889648 32.12939453 31.13889648 32.12939453 21.61889648 32.12939453 Z " fill="#243C70" transform="translate(168.381103515625,84.87060546875)"/>
<path d="M0 0 C2.10699684 -0.00486292 4.21398905 -0.01230842 6.32096863 -0.02212524 C12.01301167 -0.04084955 17.70436128 -0.02217485 23.39634991 0.00453901 C29.36500266 0.02725815 35.33362353 0.01894636 41.30230713 0.01504517 C51.31900292 0.0132826 61.33542712 0.0353749 71.35205078 0.07226562 C82.92430817 0.11464222 94.49616859 0.1216089 106.06848788 0.10914171 C117.21818949 0.09774609 128.36775167 0.10905251 139.51743317 0.1314888 C144.25569493 0.14076506 148.99387122 0.14253538 153.73213959 0.13831711 C159.3104811 0.13454497 164.88841949 0.15080733 170.46666908 0.1824379 C172.51124974 0.19090861 174.55587136 0.19263474 176.60046196 0.1870575 C179.39568161 0.18059029 182.18970552 0.19883262 184.98480225 0.22323608 C186.19240082 0.21189811 186.19240082 0.21189811 187.42439532 0.20033109 C194.2223603 0.30501556 199.61120373 2.26390399 204.40332031 7.18212891 C207.81693955 12.56514386 208.31973272 17.12268141 208.29574585 23.41633606 C208.30027696 24.28884386 208.30480808 25.16135167 208.30947649 26.0602991 C208.32213532 28.98353125 208.32049916 31.90657745 208.31884766 34.82983398 C208.32483199 36.92594136 208.33163732 39.02204654 208.33920288 41.1181488 C208.35688007 46.81243492 208.361559 52.50666094 208.36283445 58.20097184 C208.36473347 62.95490806 208.37209107 67.70883028 208.37917864 72.4627611 C208.39546685 83.67952699 208.40034721 94.89626076 208.39892578 106.11303711 C208.39772432 117.68227448 208.41882609 129.25132529 208.45041311 140.82051545 C208.47656851 150.75442597 208.48729338 160.68827553 208.48601496 170.62222022 C208.4855051 176.55477592 208.4912018 182.48716587 208.51237106 188.41968727 C208.5317408 194.00033754 208.53188635 199.58066373 208.5173378 205.16132545 C208.51524703 207.20753452 208.51996653 209.2537638 208.53205872 211.2999382 C208.54751912 214.0976624 208.53819769 216.89427027 208.52279663 219.69197083 C208.53308376 220.49792043 208.54337088 221.30387004 208.55396974 222.13424236 C208.47687086 228.49062684 206.75808832 233.97963809 202.21191406 238.58447266 C201.63570312 238.94669922 201.05949219 239.30892578 200.46582031 239.68212891 C199.59763672 240.25253906 199.59763672 240.25253906 198.71191406 240.83447266 C194.46351161 243.13117282 190.32037811 242.89005465 185.63508606 242.8850708 C184.33501296 242.88952748 184.33501296 242.88952748 183.00867575 242.8940742 C180.09309512 242.90277278 177.17755549 242.90427044 174.26196289 242.90576172 C172.17600415 242.91038913 170.09004626 242.91541368 168.00408936 242.92080688 C162.32829135 242.93394161 156.65250518 242.94037811 150.97669435 242.94481754 C147.43127104 242.94774695 143.88585098 242.95185154 140.34042931 242.95632172 C129.24950513 242.97000037 118.15858836 242.97966484 107.06765634 242.98352361 C94.26171507 242.98800337 81.45588058 243.00554599 68.64997178 243.0345242 C58.75432453 243.05613991 48.85870733 243.06622786 38.96303672 243.06756473 C33.05171493 243.06861296 27.14049349 243.07452472 21.22919655 243.09238434 C15.66668071 243.10886267 10.10434063 243.11102158 4.54180908 243.10224533 C2.50205197 243.10147479 0.46228542 243.10581984 -1.57744789 243.11570358 C-4.36634984 243.12842299 -7.15462928 243.12254617 -9.94352722 243.11212158 C-11.14866157 243.12420619 -11.14866157 243.12420619 -12.37814206 243.13653493 C-18.12834517 243.08641474 -23.95921181 242.32348673 -28.50233144 238.43429685 C-33.74318475 232.57819385 -34.26677895 226.49113228 -34.21891785 219.0353241 C-34.22133226 218.17083454 -34.22374668 217.30634498 -34.22623426 216.41565877 C-34.23185966 213.52548224 -34.22321673 210.63552786 -34.21459961 207.74536133 C-34.2156728 205.67043498 -34.21761204 203.59550892 -34.22035217 201.52058411 C-34.22519858 195.88825372 -34.21754651 190.25600259 -34.20739913 184.62368178 C-34.19861096 178.72619833 -34.20037625 172.82871731 -34.20075989 166.93122864 C-34.19982331 157.02420731 -34.19114167 147.11721661 -34.17749023 137.21020508 C-34.16177783 125.76543696 -34.15649171 114.32070241 -34.15722579 102.87592429 C-34.15790213 90.68386428 -34.15095434 78.49181717 -34.14177918 66.29976106 C-34.13965068 62.79128803 -34.13893838 59.2828171 -34.13854027 55.77434349 C-34.13753317 50.2528645 -34.13140656 44.73141351 -34.12137413 39.20994377 C-34.1184616 37.18673626 -34.11722123 35.16352553 -34.11780167 33.14031601 C-34.11829521 30.37180944 -34.11260875 27.60338037 -34.10539246 24.83488464 C-34.10694106 24.0403119 -34.10848966 23.24573915 -34.11008519 22.42708844 C-34.10053079 20.19675625 -34.04952548 17.97357519 -33.97167969 15.74462891 C-33.95041578 14.93948884 -33.92915188 14.13434877 -33.90724361 13.30481052 C-33.5451961 7.3701009 -33.5451961 7.3701009 -30.98630905 4.57940102 C-20.85092905 -0.36933861 -11.07807436 -0.08984381 0 0 Z M-23.97167969 11.74462891 C-26.80310133 15.36638067 -26.2589381 19.84340287 -26.24583435 24.23361206 C-26.25107103 25.09850947 -26.25630771 25.96340687 -26.26170307 26.85451329 C-26.27672651 29.75787311 -26.27740874 32.66105707 -26.27807617 35.56445312 C-26.28569603 37.64395445 -26.29412323 39.72345295 -26.30329895 41.802948 C-26.32526678 47.45583169 -26.33404583 53.10866129 -26.33912539 58.76158285 C-26.34276599 62.29209252 -26.34900447 65.82258795 -26.35612679 69.35309219 C-26.38062833 81.66639073 -26.3936749 93.97964708 -26.3972168 106.29296875 C-26.40085355 117.77648973 -26.43075727 129.25974368 -26.47262138 140.74318302 C-26.50729088 150.59806229 -26.52276465 160.45285292 -26.52346283 170.30779278 C-26.52425672 176.19563148 -26.53304724 182.0831982 -26.56146049 187.97097397 C-26.587584 193.5081545 -26.58987811 199.04483645 -26.57380486 204.58205032 C-26.57198587 206.61459182 -26.57872142 208.64716162 -26.59462357 210.67964172 C-26.61500913 213.45424729 -26.60457682 216.22709606 -26.58641052 219.00167847 C-26.59961049 219.80635398 -26.61281046 220.61102949 -26.62641042 221.44008911 C-26.56604766 225.4753335 -26.16364508 228.01272941 -23.62075901 231.22856331 C-19.31395014 235.31912169 -15.29713013 234.89112577 -9.67214966 234.8850708 C-8.81556822 234.88804192 -7.95898678 234.89101305 -7.07644832 234.8940742 C-4.19532424 234.90277205 -1.31424165 234.90427036 1.56689453 234.90576172 C3.62816456 234.91038908 5.68943373 234.91541362 7.7507019 234.92080688 C13.35811884 234.9339397 18.96552379 234.94037741 24.5729537 234.94481754 C28.07413107 234.94774648 31.57530515 234.95185092 35.07648087 234.95632172 C46.02483794 234.96999816 56.97318751 234.97966444 67.92155254 234.98352361 C80.57131297 234.9880067 93.22096548 235.00556566 105.87069309 235.0345242 C115.64145375 235.05611782 125.41218398 235.06622663 135.18296826 235.06756473 C141.02209501 235.0686143 146.86112033 235.07455458 152.70022202 235.09238434 C158.19132176 235.10882519 163.68224338 235.11103992 169.17335892 235.10224533 C171.19018785 235.10147285 173.20702619 235.10584531 175.22383118 235.11570358 C177.97437568 235.12836138 180.7242834 235.12257995 183.474823 235.11212158 C184.27531157 235.12017799 185.07580015 235.12823439 185.90054595 235.13653493 C191.61825592 235.08559132 194.67738275 233.92184749 198.81701088 230.08811092 C200.6334291 226.57394409 200.44120268 223.11294126 200.40927124 219.24891663 C200.4162912 217.95051217 200.4162912 217.95051217 200.42345297 216.62587732 C200.43543643 213.72007505 200.4259326 210.81474147 200.41650391 207.90893555 C200.42056815 205.82781193 200.42590919 203.74669047 200.43243408 201.66557312 C200.44613185 196.00857625 200.44079861 190.35174319 200.43129683 184.69474339 C200.42371198 178.77935542 200.43074266 172.86398165 200.43545532 166.94859314 C200.44091673 157.01282224 200.43371159 147.07711818 200.41943359 137.14135742 C200.40311087 125.64992572 200.40839135 114.15865372 200.42491281 102.6672259 C200.43852205 92.80726219 200.44044994 82.9473466 200.4325968 73.08737653 C200.42791663 67.19574232 200.42730484 61.30418319 200.43720627 55.41255379 C200.44586527 49.87299301 200.43987338 44.3336383 200.4225235 38.79409981 C200.41855278 36.75954023 200.41970267 34.72496334 200.42631149 32.69041061 C200.43449396 29.91581364 200.42424517 27.14187943 200.40927124 24.36732483 C200.41930949 23.1559423 200.41930949 23.1559423 200.42955053 21.9200874 C200.38178745 17.36574264 199.96965776 14.29920149 197.02832031 10.74462891 C193.40469354 7.90918219 188.9251463 8.46343307 184.53260803 8.4839325 C183.23420358 8.47819417 183.23420358 8.47819417 181.90956873 8.47233993 C179.00386002 8.4620063 176.09834877 8.46600277 173.19262695 8.4699707 C171.11150428 8.46562444 169.03038321 8.46044158 166.94926453 8.45448303 C161.29230331 8.44107282 155.63540882 8.4405166 149.9784348 8.44304633 C145.25906154 8.44411464 140.53970187 8.4392363 135.82033151 8.43444091 C124.68856033 8.42333881 113.55682288 8.42291233 102.42504883 8.42895508 C90.9336239 8.43499704 79.44232135 8.42267975 67.9509173 8.40138501 C58.09095956 8.38378401 48.23104082 8.37776526 38.37106794 8.38102275 C32.47942653 8.38283809 26.58787241 8.38017444 20.69624519 8.36630821 C15.15669581 8.35375887 9.61733757 8.35564657 4.07779121 8.3687191 C2.0432275 8.37109072 0.00865046 8.36832935 -2.02589798 8.36009598 C-4.80048346 8.34967636 -7.57442189 8.35769065 -10.34898376 8.3704071 C-11.15657212 8.36303282 -11.96416047 8.35565853 -12.7962212 8.34806079 C-17.35172272 8.39206992 -20.41649376 8.80206717 -23.97167969 11.74462891 Z " fill="#253A6B" transform="translate(116.9716796875,38.25537109375)"/>
<path d="M0 0 C26.85124759 -0.09344974 53.7024708 -0.16398244 80.55384827 -0.20724869 C93.02146847 -0.2278721 105.48898762 -0.25598865 117.95654297 -0.30175781 C128.82351944 -0.34163212 139.69042272 -0.36743442 150.55747032 -0.37635398 C156.31127355 -0.38156767 162.0648674 -0.39381749 167.81860352 -0.42292023 C173.23582681 -0.4500985 178.65275475 -0.45844001 184.07003975 -0.45243073 C186.05659147 -0.45352987 188.04315322 -0.46146924 190.02964592 -0.4768219 C192.74660557 -0.4967875 195.4624569 -0.49191527 198.17944336 -0.48101807 C198.96156693 -0.49266943 199.74369049 -0.5043208 200.54951477 -0.51632524 C206.11495325 -0.4561831 210.33110338 0.93887392 215 4 C220.50251094 9.64731386 221.29661526 15.01293214 221.26742554 22.67170715 C221.27195665 23.54421496 221.27648776 24.41672276 221.28115618 25.31567019 C221.29381501 28.23890235 221.29217885 31.16194855 221.29052734 34.08520508 C221.29651168 36.18131246 221.303317 38.27741763 221.31088257 40.3735199 C221.32855976 46.06780601 221.33323869 51.76203203 221.33451414 57.45634294 C221.33641316 62.21027915 221.34377076 66.96420137 221.35085833 71.7181322 C221.36714654 82.93489808 221.3720269 94.15163185 221.37060547 105.3684082 C221.36940401 116.93764557 221.39050578 128.50669639 221.4220928 140.07588655 C221.4482482 150.00979706 221.45897306 159.94364663 221.45769465 169.87759131 C221.45718479 175.81014702 221.46288149 181.74253697 221.48405075 187.67505836 C221.50342049 193.25570863 221.50356604 198.83603482 221.48901749 204.41669655 C221.48692671 206.46290561 221.49164622 208.50913489 221.5037384 210.5553093 C221.51919881 213.35303349 221.50987738 216.14964137 221.49447632 218.94734192 C221.50476344 219.75329152 221.51505057 220.55924113 221.52564943 221.38961345 C221.45832366 226.94025776 220.24022197 231.41796551 217 236 C216.01 236.66 215.02 237.32 214 238 C215.86068842 233.21537263 215.86068842 233.21537263 217.05443954 231.3698597 C218.49208613 227.76668375 218.2745766 224.15449433 218.25396729 220.33224487 C218.25708727 219.448191 218.26020725 218.56413712 218.26342177 217.65329373 C218.27141137 214.68529896 218.26507439 211.71750809 218.25878906 208.74951172 C218.26149846 206.62411377 218.2650591 204.49871676 218.26940918 202.37332153 C218.27854047 196.59672549 218.27498615 190.82020074 218.26865101 185.04360342 C218.26359618 179.00669757 218.2682809 172.96979793 218.27142334 166.93289185 C218.27506393 156.79623312 218.27026085 146.65960352 218.26074219 136.52294922 C218.24985161 124.78950477 218.25338724 113.0561298 218.264395 101.32268703 C218.27345822 91.26065661 218.27475806 81.19864715 218.26951766 71.13661397 C218.26639339 65.12157052 218.26600122 59.10655977 218.27259064 53.0915184 C218.27834966 47.43956356 218.27439378 41.78769871 218.26280212 36.13575363 C218.26014803 34.05639292 218.2609333 31.97702469 218.26532745 29.89766693 C218.27075477 27.0696035 218.2639833 24.24183241 218.25396729 21.41378784 C218.25842873 20.58189717 218.26289017 19.7500065 218.26748681 18.89290702 C218.41753307 14.47667347 218.41753307 14.47667347 216 11 C215.375 8.875 215.375 8.875 215 7 C214.236875 6.855625 213.47375 6.71125 212.6875 6.5625 C210 6 210 6 207 5 C207 4.34 207 3.68 207 3 C138.69 2.67 70.38 2.34 0 2 C0 1.34 0 0.68 0 0 Z " fill="#23335B" transform="translate(104,39)"/>
<path d="M0 0 C3.06102286 0.00099386 6.12204079 -0.00001723 9.18306351 -0.0012207 C44.3867935 -0.00636151 79.52417185 0.66463887 114.69524002 2.18847656 C114.69524002 2.51847656 114.69524002 2.84847656 114.69524002 3.18847656 C44.40524002 3.18847656 -25.88475998 3.18847656 -98.30475998 3.18847656 C-98.30475998 2.85847656 -98.30475998 2.52847656 -98.30475998 2.18847656 C-88.06761798 0.99510379 -77.8044785 0.85179999 -67.51179123 0.63769531 C-66.55594446 0.61688086 -65.60009769 0.5960664 -64.61528587 0.5746212 C-43.07761384 0.11119409 -21.54211697 -0.00885383 0 0 Z " fill="#203057" transform="translate(196.30475997924805,277.8115234375)"/>
<path d="M0 0 C0.66 0 1.32 0 2 0 C3.20513349 9.41588729 3.12741368 18.78550243 3.09765625 28.2578125 C3.09578797 30.01471923 3.094366 31.77162649 3.09336853 33.52853394 C3.08957565 38.12171909 3.07977343 42.71487193 3.06866455 47.30804443 C3.05838051 52.00744184 3.05385602 56.70684455 3.04882812 61.40625 C3.03814785 70.60418076 3.02111084 79.80208768 3 89 C3.81267334 88.99476318 4.62534668 88.98952637 5.46264648 88.98413086 C9.12092322 88.96343006 12.77918767 88.95036197 16.4375 88.9375 C17.71689453 88.92912109 18.99628906 88.92074219 20.31445312 88.91210938 C21.52939453 88.90888672 22.74433594 88.90566406 23.99609375 88.90234375 C25.12200928 88.89710693 26.2479248 88.89187012 27.40795898 88.88647461 C30 89 30 89 31 90 C31 99.24 31 108.48 31 118 C75.055 118.495 75.055 118.495 120 119 C120 119.33 120 119.66 120 120 C108.28273212 120.02312215 96.56546963 120.04091443 84.84818363 120.05181217 C79.40797688 120.05704128 73.96778569 120.06413943 68.52758789 120.07543945 C63.28214298 120.08626735 58.03671308 120.09227662 52.79125786 120.09487724 C50.78529054 120.09673167 48.77932408 120.10035262 46.77336311 120.10573006 C43.97397176 120.11293919 41.17464321 120.113991 38.37524414 120.11352539 C37.53727295 120.11712067 36.69930176 120.12071594 35.8359375 120.12442017 C30.11405216 120.11405216 30.11405216 120.11405216 29 119 C28.91232888 116.92737924 28.89304127 114.85179706 28.90234375 112.77734375 C28.90556641 111.51728516 28.90878906 110.25722656 28.91210938 108.95898438 C28.92046597 107.61848891 28.92893093 106.27799412 28.9375 104.9375 C28.9425134 103.59310058 28.94707658 102.2486994 28.95117188 100.90429688 C28.96300512 97.60282059 28.97949029 94.30143197 29 91 C27.74340576 91.02356567 27.74340576 91.02356567 26.46142578 91.04760742 C23.35663123 91.09870007 20.25205069 91.13633234 17.14697266 91.16479492 C15.14080626 91.18732251 13.13483474 91.2254357 11.12890625 91.26367188 C9.87207031 91.27333984 8.61523438 91.28300781 7.3203125 91.29296875 C6.15773926 91.3086792 4.99516602 91.32438965 3.79736328 91.34057617 C2.8742334 91.22818604 1.95110352 91.1157959 1 91 C-1.52904074 87.20643889 -1.27415923 84.18961635 -1.24291992 79.79663086 C-1.24481827 78.9605983 -1.24671661 78.12456573 -1.24867249 77.26319885 C-1.25238025 74.4969854 -1.24167669 71.73103391 -1.23046875 68.96484375 C-1.22927691 67.04578177 -1.2288238 65.1267192 -1.2290802 63.20765686 C-1.22751537 59.1851944 -1.21922518 55.16282094 -1.20581055 51.14038086 C-1.18880931 45.97617925 -1.18499654 40.8120754 -1.18575573 35.64784908 C-1.18548424 31.68542034 -1.18000657 27.72301311 -1.17275429 23.76059151 C-1.16956534 21.85593389 -1.16759969 19.95127383 -1.16686058 18.04661369 C-1.16470006 15.38902481 -1.1559624 12.73154103 -1.14526367 10.07397461 C-1.14571686 9.28171478 -1.14617004 8.48945496 -1.14663696 7.67318726 C-1.1144783 2.22895659 -1.1144783 2.22895659 0 0 Z " fill="#2A3154" transform="translate(129,115)"/>
<path d="M0 0 C0.97164124 0.650079 1.94328249 1.300158 2.94436741 1.96993637 C7.28999499 4.43642623 10.97739247 4.55216863 15.89012146 4.48101807 C17.19766257 4.48614462 17.19766257 4.48614462 18.53161865 4.49137473 C21.43995665 4.49794079 24.34736288 4.47599867 27.25561523 4.45410156 C29.34529092 4.45297281 31.43496818 4.45360749 33.52464294 4.45587158 C39.18947636 4.45701856 44.85397053 4.43351149 50.51872516 4.40557575 C56.4417516 4.38055965 62.36478594 4.37821992 68.28785706 4.37347412 C79.50039413 4.361045 90.71277509 4.3282241 101.92524344 4.28807616 C114.6917672 4.24335661 127.45829845 4.22137092 140.22488105 4.20129442 C166.48334057 4.15949153 192.74166153 4.08914056 219 4 C218.67 4.66 218.34 5.32 218 6 C190.80159642 6.13047087 163.60319246 6.26086007 136.40478802 6.39115143 C123.77677581 6.45164663 111.14876373 6.51216879 98.52075195 6.57275391 C87.51721926 6.62554523 76.51368634 6.67828649 65.51015311 6.73096704 C59.68114791 6.75887577 53.85214284 6.78680997 48.02313805 6.81480408 C42.54116724 6.84113074 37.05919611 6.86739067 31.57722473 6.89359856 C29.56117554 6.90324869 27.54512647 6.91292358 25.52907753 6.92262459 C22.78445593 6.93582778 20.03983392 6.94894329 17.29521179 6.96203613 C16.08850729 6.96787256 16.08850729 6.96787256 14.85742491 6.97382689 C10.57153367 6.99416666 6.28593756 7 2 7 C1.34 4.69 0.68 2.38 0 0 Z " fill="#1F2F4E" transform="translate(92,268)"/>
<path d="M0 0 C1.125 1.75 1.125 1.75 2 4 C1.69379038 4.53048824 1.38758076 5.06097649 1.07209206 5.60754013 C-0.52032243 9.16114147 -0.28757387 12.70393543 -0.2784729 16.52935791 C-0.2842653 17.39848871 -0.2900577 18.26761951 -0.29602563 19.16308761 C-0.31305441 22.08044216 -0.31590462 24.99763879 -0.31884766 27.91503906 C-0.32814384 30.00427642 -0.33831205 32.09351005 -0.34928894 34.18273926 C-0.37663788 39.85999937 -0.39175287 45.5372346 -0.40471697 51.21454334 C-0.42032609 57.14564182 -0.44712337 63.07668932 -0.4727478 69.00775146 C-0.51957491 80.24154395 -0.5563 91.47534598 -0.58942068 102.70918632 C-0.62761429 115.49745903 -0.67703167 128.2856806 -0.72740483 141.07391024 C-0.83078318 167.38256894 -0.92002438 193.69126048 -1 220 C-1.33 220 -1.66 220 -2 220 C-2.00331015 218.92747891 -2.00662029 217.85495783 -2.01003075 216.7499361 C-2.09097633 190.669381 -2.18327695 164.58888501 -2.28752708 138.50841236 C-2.3376777 125.89616423 -2.38412036 113.28392269 -2.421875 100.67163086 C-2.4547861 89.68049507 -2.49461248 78.68940998 -2.54279006 67.6983301 C-2.56806375 61.8770883 -2.58984252 56.05588016 -2.60334396 50.23459816 C-2.61615633 44.75748583 -2.63820197 39.28048892 -2.66738319 33.80344009 C-2.6764654 31.7914689 -2.6821507 29.77947912 -2.68421364 27.76748848 C-2.6875316 25.0234343 -2.70299657 22.27970829 -2.7215271 19.53572083 C-2.71959237 18.73707684 -2.71765763 17.93843285 -2.71566427 17.11558753 C-2.75754785 12.97527726 -3.13890706 9.72469847 -5 6 C-3.68 5.67 -2.36 5.34 -1 5 C-0.67 3.35 -0.34 1.7 0 0 Z " fill="#263553" transform="translate(92,46)"/>
<path d="M0 0 C0.86835983 -0.00014603 1.73671967 -0.00029205 2.63139343 -0.0004425 C5.50998406 0.00025579 8.38851048 0.00804429 11.26708984 0.01586914 C13.25963302 0.01773362 15.25217666 0.01915738 17.24472046 0.02015686 C22.49561829 0.0239797 27.74648856 0.03380802 32.99737549 0.04486084 C38.35290148 0.05507996 43.70843192 0.05965556 49.06396484 0.06469727 C59.5769978 0.07543048 70.09001028 0.09250412 80.60302734 0.11352539 C80.60302734 0.44352539 80.60302734 0.77352539 80.60302734 1.11352539 C51.27541486 2.36193276 21.95165245 2.2084365 -7.39697266 2.11352539 C-7.39697266 11.02352539 -7.39697266 19.93352539 -7.39697266 29.11352539 C-8.38697266 29.44352539 -9.37697266 29.77352539 -10.39697266 30.11352539 C-10.39697266 20.54352539 -10.39697266 10.97352539 -10.39697266 1.11352539 C-7.14570493 -0.51210847 -3.57159291 -0.01556421 0 0 Z " fill="#2C355B" transform="translate(168.39697265625,84.886474609375)"/>
<path d="M0 0 C70.62 0.33 141.24 0.66 214 1 C214 1.33 214 1.66 214 2 C212.37437449 2.00634791 212.37437449 2.00634791 210.71590805 2.01282406 C184.36867929 2.11593185 158.02147838 2.22466922 131.67429733 2.33933926 C118.93310213 2.39466149 106.19190413 2.44814188 93.45068359 2.49731445 C82.34787415 2.5401685 71.24508524 2.58644962 60.14230752 2.63687855 C54.26129823 2.66346961 48.38029299 2.68832249 42.49925995 2.70907402 C36.96719376 2.72864828 31.43516661 2.75279452 25.9031353 2.78049088 C23.86977535 2.78985711 21.83640683 2.79753393 19.80303383 2.80341911 C17.03244426 2.81168751 14.26194929 2.82596637 11.49139404 2.84178162 C10.68205532 2.84275972 9.87271659 2.84373783 9.03885245 2.84474558 C5.52397905 2.87064463 2.38237412 3.05751229 -1 4 C-0.67 2.68 -0.34 1.36 0 0 Z " fill="#273656" transform="translate(95,45)"/>
<path d="M0 0 C0.33 0 0.66 0 1 0 C1.33 29.04 1.66 58.08 2 88 C-6.91 88 -15.82 88 -25 88 C-25 87.67 -25 87.34 -25 87 C-24.34402832 86.97494385 -23.68805664 86.9498877 -23.01220703 86.92407227 C-20.04959817 86.8082674 -17.08731969 86.68547114 -14.125 86.5625 C-13.09246094 86.52318359 -12.05992187 86.48386719 -10.99609375 86.44335938 C-10.00996094 86.40146484 -9.02382813 86.35957031 -8.0078125 86.31640625 C-7.09660645 86.27974854 -6.18540039 86.24309082 -5.24658203 86.20532227 C-2.96516519 86.13422935 -2.96516519 86.13422935 -1 85 C-0.67 56.95 -0.34 28.9 0 0 Z " fill="#153468" transform="translate(277,118)"/>
<path d="M0 0 C0.33 0 0.66 0 1 0 C1 34.98 1 69.96 1 106 C0.67 106 0.34 106 0 106 C0 71.02 0 36.04 0 0 Z " fill="#000000" transform="translate(326,157)"/>
<path d="M0 0 C3.87909417 1.47138055 5.01056241 3.45361125 7 7 C8.45833358 8.62514468 8.45833358 8.62514468 10 10 C11 11 12 12 13 13 C7.57299983 12.61235713 4.71237211 10.97137482 1 7 C0.125 3.1875 0.125 3.1875 0 0 Z " fill="#203258" transform="translate(85,267)"/>
<path d="M0 0 C0 0.33 0 0.66 0 1 C-1.11375 1.103125 -2.2275 1.20625 -3.375 1.3125 C-4.57125 1.539375 -5.7675 1.76625 -7 2 C-7.99 3.485 -7.99 3.485 -9 5 C-11.33333333 5.66666667 -13.66666667 6.33333333 -16 7 C-16.99 8.485 -16.99 8.485 -18 10 C-18.66 10 -19.32 10 -20 10 C-19.81640625 7.67578125 -19.81640625 7.67578125 -19 5 C-13.188652 0.86362753 -7.00743368 -0.66107865 0 0 Z " fill="#676E88" transform="translate(104,39)"/>
<path d="M0 0 C0.33 0 0.66 0 1 0 C1 13.2 1 26.4 1 40 C0.67 40 0.34 40 0 40 C0 26.8 0 13.6 0 0 Z " fill="#000000" transform="translate(326,59)"/>
<path d="M0 0 C1.0725 0.639375 2.145 1.27875 3.25 1.9375 C5.80822182 3.40601273 8.05340886 4.52854542 11 5 C11 5.66 11 6.32 11 7 C7.62182575 7.84454356 5.32534757 8.10844919 2 7 C1.34 4.69 0.68 2.38 0 0 Z " fill="#1D325B" transform="translate(92,268)"/>
<path d="M0 0 C2.99324263 1.0975223 3.84610901 1.67682892 5.25 4.625 C5.4975 5.40875 5.745 6.1925 6 7 C4.35 7 2.7 7 1 7 C0.67 4.69 0.34 2.38 0 0 Z " fill="#1F3367" transform="translate(85,267)"/>
<path d="M0 0 C1.125 1.75 1.125 1.75 2 4 C1.125 6.25 1.125 6.25 0 8 C-0.66 8 -1.32 8 -2 8 C-2.33 8.99 -2.66 9.98 -3 11 C-3.66 9.35 -4.32 7.7 -5 6 C-3.68 5.67 -2.36 5.34 -1 5 C-0.67 3.35 -0.34 1.7 0 0 Z " fill="#213660" transform="translate(92,46)"/>
<path d="M0 0 C2.31 0.33 4.62 0.66 7 1 C7.12375 1.639375 7.2475 2.27875 7.375 2.9375 C7.684375 3.9584375 7.684375 3.9584375 8 5 C8.66 5.33 9.32 5.66 10 6 C5.16743695 5.58578031 3.17320782 3.53586014 0 0 Z " fill="#213562" transform="translate(307,44)"/>
</svg>
